<svg viewBox="0 0 35 35" fill="000000" xmlns="http://www.w3.org/2000/svg">
<g>
<path d="M29.6647 -0.00251579V5.15646H34.7947V-0.00251579H29.6647Z" fill="000000"/>
<path d="M-0.0158691 35.0035H5.11418V29.8445H-0.0158691V35.0035Z" fill="000000"/>
<path d="M29.6645 7.73628V17.5015C29.6645 24.3187 24.168 29.8462 17.389 29.8462H9.69397H7.67859V35.0052H17.389C26.9774 35.0052 34.7946 27.1439 34.7946 17.5015V7.73628H29.6645Z" fill="000000"/>
<path d="M5.11358 26.221V17.4998C5.11358 10.6826 10.6101 5.15512 17.3891 5.15512H27.0995V-0.00385857H17.3891C7.80075 -0.00385857 -0.0164795 7.85745 -0.0164795 17.4998V27.265H5.11358V26.221Z" fill="000000"/>
<path d="M23.7422 17.4997C23.7422 21.0004 20.9329 23.887 17.3907 23.887C13.8485 23.887 11.0392 21.0618 11.0392 17.4997C11.0392 13.9989 13.8485 11.1124 17.3907 11.1124C20.9329 11.1124 23.7422 13.9989 23.7422 17.4997Z" fill="000000"/>
<path d="M24.1444 17.6485C24.1444 21.3881 21.1264 24.4231 17.4078 24.4231C13.6892 24.4231 10.6711 21.3881 10.6711 17.6485C10.6711 13.9089 13.6892 10.8739 17.4078 10.8739C21.1264 10.8739 24.1444 13.9089 24.1444 17.6485Z" fill="000000"/>
</g>
</svg>
